# xmcd
#
# Track frame offsets: 
#        150
#        17402
#        43856
#        70293
#        97379
#        124726
#        145809
#        172156
#        194282
#        217616
#        239268
#        260450
#        282135
#        299952
#        322822
#
# Disc length: 4711 seconds
#
# Revision: 3
# Processed by: cddbd v1.5.2PL0 Copyright (c) Steve Scherf et al.
# Submitted via: ExactAudioCopy v1.0b1
#
DISCID=e812650f
DTITLE=Baltimora - Tarzan Boy - The World Of Baltimora
DYEAR=2010
DGENRE=Pop
TTITLE0=Tarzan Boy (Single Version)
TTITLE1=Woody Boogie
TTITLE2=Juke Box Boy
TTITLE3=Key Key Karimba
TTITLE4=Living In The Background
TTITLE5=Global Love
TTITLE6=Running For Your Love
TTITLE7=Call Me In The Heart Of The Night
TTITLE8=Chinese Restaurant
TTITLE9=Set Me Free
TTITLE10=Pull The Wires
TTITLE11=Come On Strike
TTITLE12=Jimmy's Guitar
TTITLE13=Survivor In Love
TTITLE14=Tarzan Boy (Summer Version)
EXTD=EMI records\n5099994849325
EXTT0=
EXTT1=
EXTT2=
EXTT3=
EXTT4=
EXTT5=
EXTT6=
EXTT7=
EXTT8=
EXTT9=
EXTT10=
EXTT11=
EXTT12=
EXTT13=
EXTT14=
PLAYORDER=
